<svg xmlns="http://www.w3.org/2000/svg" xmlns:xlink="http://www.w3.org/1999/xlink" width="500" zoomAndPan="magnify" viewBox="0 0 375 374.999991" height="500" preserveAspectRatio="xMidYMid meet" version="1.0"><defs><clipPath id="ae8e3f035b"><path d="M 231 59.359375 L 294 59.359375 L 294 122 L 231 122 Z M 231 59.359375 " clip-rule="nonzero"/></clipPath><clipPath id="9279bcf29d"><path d="M 251 159 L 305.96875 159 L 305.96875 214 L 251 214 Z M 251 159 " clip-rule="nonzero"/></clipPath></defs><path fill="#231f20" d="M 194.332031 122.683594 C 194.332031 122.683594 192.273438 135.914062 189.292969 138.949219 C 186.21875 142.066406 172.671875 144.375 172.671875 144.375 C 172.671875 144.375 185.890625 146.765625 188.921875 149.796875 C 191.949219 152.824219 194.332031 166.058594 194.332031 166.058594 C 194.332031 166.058594 196.726562 152.832031 199.753906 149.804688 C 202.78125 146.78125 216.003906 144.386719 216.003906 144.386719 C 216.003906 144.386719 202.644531 142.121094 199.753906 138.960938 C 197.019531 135.960938 194.332031 122.683594 194.332031 122.683594 Z M 194.332031 122.683594 " fill-opacity="1" fill-rule="nonzero"/><g clip-path="url(#ae8e3f035b)"><path fill="#231f20" d="M 262.488281 59.359375 C 262.488281 59.359375 259.527344 78.394531 255.234375 82.761719 C 250.8125 87.238281 231.320312 90.5625 231.320312 90.5625 C 231.320312 90.5625 250.355469 93.996094 254.703125 98.367188 C 259.054688 102.734375 262.488281 121.765625 262.488281 121.765625 C 262.488281 121.765625 265.929688 102.722656 270.285156 98.359375 C 274.640625 93.996094 293.660156 90.558594 293.660156 90.558594 C 293.660156 90.558594 274.4375 87.300781 270.285156 82.757812 C 266.34375 78.460938 262.488281 59.359375 262.488281 59.359375 Z M 262.488281 59.359375 " fill-opacity="1" fill-rule="nonzero"/></g><g clip-path="url(#9279bcf29d)"><path fill="#231f20" d="M 278.445312 159.410156 C 278.445312 159.410156 275.894531 175.835938 272.179688 179.601562 C 268.371094 183.464844 251.558594 186.328125 251.558594 186.328125 C 251.558594 186.328125 267.964844 189.296875 271.71875 193.058594 C 275.476562 196.820312 278.445312 213.242188 278.445312 213.242188 C 278.445312 213.242188 281.410156 196.820312 285.167969 193.058594 C 288.925781 189.296875 305.335938 186.328125 305.335938 186.328125 C 305.335938 186.328125 288.710938 183.582031 285.167969 179.601562 C 281.242188 175.199219 278.445312 159.410156 278.445312 159.410156 Z M 278.445312 159.410156 " fill-opacity="1" fill-rule="nonzero"/></g><path fill="#000000" d="M 161.65625 210.289062 C 160.605469 209.019531 159.589844 207.730469 158.597656 206.417969 C 157.609375 205.105469 156.648438 203.769531 155.714844 202.414062 C 154.785156 201.058594 153.882812 199.683594 153.011719 198.285156 C 152.140625 196.890625 151.300781 195.476562 150.492188 194.042969 C 149.683594 192.613281 148.910156 191.160156 148.164062 189.695312 C 147.417969 188.226562 146.707031 186.746094 146.03125 185.246094 C 145.351562 183.746094 144.707031 182.234375 144.09375 180.707031 C 143.480469 179.179688 142.902344 177.640625 142.359375 176.089844 C 141.816406 174.535156 141.304688 172.972656 140.832031 171.398438 C 140.355469 169.820312 139.914062 168.234375 139.511719 166.640625 C 139.105469 165.046875 138.734375 163.445312 138.402344 161.832031 C 138.066406 160.222656 137.769531 158.605469 137.507812 156.980469 C 137.242188 155.355469 137.015625 153.726562 136.824219 152.09375 C 136.636719 150.457031 136.480469 148.820312 136.363281 147.179688 C 136.242188 145.539062 136.160156 143.894531 136.117188 142.25 C 136.070312 140.605469 136.058594 138.960938 136.085938 137.316406 C 136.113281 135.667969 136.175781 134.027344 136.277344 132.382812 C 136.375 130.742188 136.511719 129.101562 136.683594 127.464844 C 136.855469 125.828125 137.0625 124.195312 137.304688 122.570312 C 137.546875 120.941406 137.828125 119.320312 138.144531 117.707031 C 138.457031 116.089844 138.808594 114.484375 139.195312 112.886719 C 139.582031 111.285156 140.003906 109.695312 140.460938 108.113281 C 140.917969 106.535156 141.40625 104.964844 141.933594 103.40625 C 142.460938 101.847656 143.019531 100.300781 143.613281 98.765625 C 144.207031 97.230469 144.835938 95.710938 145.496094 94.203125 C 146.15625 92.699219 146.851562 91.207031 147.578125 89.730469 C 148.304688 88.257812 149.066406 86.796875 149.855469 85.355469 C 150.648438 83.914062 151.472656 82.488281 152.324219 81.082031 C 153.179688 79.679688 154.066406 78.292969 154.980469 76.925781 C 155.894531 75.558594 156.839844 74.214844 157.816406 72.886719 C 158.792969 71.5625 159.796875 70.261719 160.828125 68.980469 C 161.859375 67.699219 162.921875 66.445312 164.007812 65.210938 C 161.503906 65.824219 159.023438 66.519531 156.5625 67.289062 C 154.101562 68.0625 151.667969 68.910156 149.257812 69.835938 C 146.851562 70.761719 144.476562 71.761719 142.132812 72.835938 C 139.789062 73.910156 137.480469 75.0625 135.210938 76.28125 C 132.941406 77.503906 130.710938 78.796875 128.519531 80.160156 C 126.328125 81.523438 124.183594 82.953125 122.085938 84.449219 C 119.984375 85.949219 117.9375 87.511719 115.933594 89.140625 C 113.933594 90.769531 111.988281 92.457031 110.09375 94.210938 C 108.199219 95.960938 106.363281 97.769531 104.582031 99.636719 C 102.800781 101.507812 101.082031 103.429688 99.425781 105.40625 C 97.765625 107.378906 96.171875 109.40625 94.640625 111.484375 C 93.109375 113.5625 91.648438 115.683594 90.25 117.855469 C 88.855469 120.023438 87.527344 122.238281 86.269531 124.492188 C 85.011719 126.746094 83.828125 129.035156 82.714844 131.363281 C 81.605469 133.691406 80.566406 136.054688 79.601562 138.449219 C 78.640625 140.84375 77.753906 143.265625 76.941406 145.714844 C 76.132812 148.167969 75.402344 150.640625 74.746094 153.136719 C 74.09375 155.632812 73.515625 158.148438 73.023438 160.683594 C 72.527344 163.214844 72.113281 165.761719 71.777344 168.320312 C 71.441406 170.878906 71.1875 173.449219 71.015625 176.023438 C 70.84375 178.597656 70.753906 181.175781 70.742188 183.757812 C 70.734375 186.339844 70.804688 188.917969 70.957031 191.496094 C 71.109375 194.070312 71.34375 196.640625 71.660156 199.203125 C 71.976562 201.765625 72.371094 204.3125 72.847656 206.851562 C 73.324219 209.386719 73.878906 211.90625 74.515625 214.410156 C 75.148438 216.910156 75.863281 219.390625 76.652344 221.847656 C 77.445312 224.304688 78.3125 226.730469 79.257812 229.132812 C 80.203125 231.535156 81.222656 233.90625 82.316406 236.242188 C 83.414062 238.578125 84.578125 240.878906 85.820312 243.140625 C 87.058594 245.40625 88.371094 247.628906 89.75 249.808594 C 91.128906 251.988281 92.578125 254.121094 94.089844 256.210938 C 95.605469 258.300781 97.183594 260.339844 98.828125 262.328125 C 100.472656 264.316406 102.175781 266.253906 103.941406 268.132812 C 105.707031 270.015625 107.53125 271.835938 109.410156 273.601562 C 111.292969 275.371094 113.226562 277.074219 115.214844 278.71875 C 117.203125 280.359375 119.242188 281.9375 121.328125 283.453125 C 123.417969 284.96875 125.550781 286.414062 127.730469 287.792969 C 129.910156 289.171875 132.132812 290.484375 134.394531 291.722656 C 136.65625 292.960938 138.953125 294.125 141.289062 295.21875 C 143.625 296.3125 145.992188 297.332031 148.390625 298.277344 C 150.792969 299.21875 153.21875 300.085938 155.675781 300.875 C 158.128906 301.667969 160.605469 302.378906 163.105469 303.011719 C 165.605469 303.644531 168.121094 304.199219 170.65625 304.671875 C 173.191406 305.148438 175.738281 305.542969 178.296875 305.855469 C 180.855469 306.167969 183.421875 306.398438 185.996094 306.550781 C 188.570312 306.699219 191.148438 306.769531 193.726562 306.757812 C 196.304688 306.746094 198.878906 306.652344 201.453125 306.476562 C 204.023438 306.300781 206.589844 306.042969 209.144531 305.707031 C 211.699219 305.367188 214.242188 304.949219 216.773438 304.453125 C 219.304688 303.953125 221.816406 303.375 224.308594 302.71875 C 226.800781 302.0625 229.273438 301.324219 231.71875 300.511719 C 234.167969 299.699219 236.585938 298.808594 238.976562 297.84375 C 241.367188 296.875 243.722656 295.835938 246.050781 294.71875 C 248.375 293.601562 250.660156 292.414062 252.910156 291.152344 C 255.160156 289.894531 257.371094 288.5625 259.535156 287.164062 C 261.703125 285.761719 263.820312 284.296875 265.894531 282.761719 C 267.96875 281.226562 269.992188 279.628906 271.964844 277.964844 C 273.9375 276.304688 275.855469 274.582031 277.71875 272.796875 C 279.582031 271.011719 281.386719 269.171875 283.136719 267.273438 C 284.882812 265.375 286.570312 263.425781 288.191406 261.421875 C 289.816406 259.417969 291.378906 257.363281 292.871094 255.257812 C 294.367188 253.15625 295.792969 251.007812 297.152344 248.8125 C 298.511719 246.621094 299.800781 244.386719 301.019531 242.109375 C 302.234375 239.835938 303.382812 237.523438 304.453125 235.175781 C 303.039062 236.015625 301.609375 236.824219 300.15625 237.597656 C 298.707031 238.375 297.242188 239.117188 295.757812 239.828125 C 294.277344 240.539062 292.777344 241.214844 291.265625 241.859375 C 289.753906 242.503906 288.226562 243.113281 286.6875 243.691406 C 285.148438 244.269531 283.597656 244.808594 282.035156 245.316406 C 280.46875 245.828125 278.894531 246.300781 277.3125 246.738281 C 275.726562 247.175781 274.132812 247.578125 272.53125 247.945312 C 270.929688 248.316406 269.320312 248.648438 267.703125 248.945312 C 266.085938 249.242188 264.464844 249.5 262.835938 249.726562 C 261.207031 249.949219 259.574219 250.140625 257.9375 250.292969 C 256.300781 250.445312 254.664062 250.5625 253.019531 250.640625 C 251.378906 250.722656 249.734375 250.765625 248.09375 250.773438 C 246.449219 250.78125 244.804688 250.75 243.164062 250.683594 C 241.519531 250.621094 239.878906 250.519531 238.242188 250.378906 C 236.605469 250.242188 234.96875 250.066406 233.339844 249.855469 C 231.710938 249.648438 230.085938 249.402344 228.464844 249.117188 C 226.847656 248.835938 225.234375 248.519531 223.628906 248.164062 C 222.023438 247.8125 220.425781 247.421875 218.839844 246.996094 C 217.25 246.574219 215.671875 246.113281 214.105469 245.621094 C 212.535156 245.125 210.980469 244.597656 209.433594 244.035156 C 207.890625 243.472656 206.359375 242.875 204.839844 242.242188 C 203.324219 241.613281 201.820312 240.949219 200.332031 240.25 C 198.84375 239.554688 197.367188 238.824219 195.914062 238.0625 C 194.457031 237.300781 193.015625 236.503906 191.59375 235.679688 C 190.171875 234.851562 188.769531 233.996094 187.386719 233.105469 C 186.003906 232.21875 184.640625 231.300781 183.296875 230.351562 C 181.953125 229.402344 180.632812 228.425781 179.332031 227.417969 C 178.03125 226.410156 176.753906 225.375 175.5 224.3125 C 174.246094 223.25 173.015625 222.15625 171.808594 221.039062 C 170.605469 219.921875 169.421875 218.777344 168.269531 217.605469 C 167.113281 216.4375 165.984375 215.242188 164.878906 214.019531 C 163.777344 212.800781 162.703125 211.554688 161.65625 210.289062 Z M 161.65625 210.289062 " fill-opacity="1" fill-rule="nonzero"/></svg>